<svg xmlns="http://www.w3.org/2000/svg" width="375" viewBox="0 0 375 375" height="375" version="1.0"><defs><clipPath id="a"><path d="M 54.410156 38 L 320.660156 38 L 320.660156 337.5 L 54.410156 337.5 Z M 54.410156 38"/></clipPath></defs><g clip-path="url(#a)"><path fill="#5A944B" d="M 187.535156 337.457031 C 183.40625 337.457031 179.558594 336.359375 175.992188 334.441406 L 139.445312 312.734375 C 133.949219 309.71875 136.699219 308.621094 138.347656 308.070312 C 145.765625 305.59375 147.140625 305.042969 154.835938 300.648438 C 155.660156 300.097656 156.757812 300.378906 157.582031 300.929688 L 185.605469 317.679688 C 186.703125 318.230469 188.082031 318.230469 188.914062 317.679688 L 298.542969 254.226562 C 299.644531 253.679688 300.195312 252.578125 300.195312 251.199219 L 300.195312 124.554688 C 300.195312 123.183594 299.644531 122.085938 298.542969 121.535156 L 188.914062 58.351562 C 187.8125 57.800781 186.433594 57.800781 185.605469 58.351562 L 75.972656 121.535156 C 74.871094 122.085938 74.320312 123.457031 74.320312 124.558594 L 74.320312 251.203125 C 74.320312 252.300781 74.871094 253.679688 75.96875 254.230469 L 105.921875 271.53125 C 122.132812 279.769531 132.300781 270.160156 132.300781 260.542969 L 132.300781 135.546875 C 132.300781 133.898438 133.675781 132.25 135.597656 132.25 L 149.613281 132.25 C 151.261719 132.25 152.910156 133.625 152.910156 135.546875 L 152.910156 260.542969 C 152.910156 282.25 141.09375 294.886719 120.484375 294.886719 C 114.164062 294.886719 109.21875 294.886719 95.207031 288.011719 L 66.351562 271.53125 C 59.207031 267.414062 54.8125 259.722656 54.8125 251.484375 L 54.8125 124.839844 C 54.8125 116.589844 59.207031 108.898438 66.351562 104.777344 L 175.992188 41.320312 C 182.859375 37.472656 192.210938 37.472656 199.074219 41.320312 L 308.714844 104.777344 C 315.859375 108.898438 320.257812 116.589844 320.257812 124.832031 L 320.257812 251.476562 C 320.257812 259.71875 315.859375 267.410156 308.714844 271.527344 L 199.074219 334.988281 C 195.507812 336.636719 191.382812 337.457031 187.535156 337.457031 Z M 221.335938 250.382812 C 173.246094 250.382812 163.355469 228.394531 163.355469 209.714844 C 163.355469 208.066406 164.722656 206.417969 166.652344 206.417969 L 180.9375 206.417969 C 182.589844 206.417969 183.957031 207.515625 183.957031 209.164062 C 186.15625 223.730469 192.480469 230.871094 221.605469 230.871094 C 244.6875 230.871094 254.582031 225.648438 254.582031 213.292969 C 254.582031 206.148438 251.832031 200.925781 215.839844 197.359375 C 185.886719 194.332031 167.199219 187.738281 167.199219 163.84375 C 167.199219 141.589844 185.886719 128.402344 217.210938 128.402344 C 252.382812 128.402344 269.699219 140.488281 271.894531 166.859375 C 271.894531 167.691406 271.617188 168.507812 271.066406 169.339844 C 270.515625 169.886719 269.699219 170.4375 268.867188 170.4375 L 254.582031 170.4375 C 253.210938 170.4375 251.832031 169.339844 251.5625 167.960938 C 248.265625 152.855469 239.742188 147.910156 217.210938 147.910156 C 191.929688 147.910156 188.914062 156.703125 188.914062 163.292969 C 188.914062 171.257812 192.480469 173.734375 226.550781 178.128906 C 260.355469 182.523438 276.292969 188.835938 276.292969 212.460938 C 276.011719 236.636719 256.230469 250.382812 221.335938 250.382812 Z M 221.335938 250.382812"/></g></svg>